<svg width="600" height="554" viewBox="0 0 600 554" fill="none" xmlns="http://www.w3.org/2000/svg">
<mask id="mask0_34_377" style="mask-type:alpha" maskUnits="userSpaceOnUse" x="376" y="174" width="224" height="261">
<path d="M425 310C413 338.8 387.333 360 376 367L425 435C564 383 652 227 565 183C478 139 440 274 425 310Z" fill="#EE8A35"/>
</mask>
<g mask="url(#mask0_34_377)">
<path d="M425 310C413 338.8 387.333 360 376 367L425 435C564 383 652 227 565 183C478 139 440 274 425 310Z" fill="url(#paint0_linear_34_377)"/>
<path d="M497 177C521.667 205 578.2 261 607 261C643 261 613 93 497 177Z" fill="#662200"/>
<path d="M633 297C580.2 293.8 503 231.667 471 201C454.333 205 424.2 217 437 233C449.8 249 543 333 607 361L633 297Z" fill="#662200"/>
<path d="M569 371C524.2 372.6 455.667 307.667 427 275C413 275 386.2 280.2 391 301C395.8 321.8 471 382.333 517 411L569 371Z" fill="#662200"/>
<path d="M483 429C443 429 402.333 371.667 387 343L365 353L425 457L483 429Z" fill="#662200"/>
</g>
<path d="M31.5 474.5C47.5 400.1 92 354 105.5 337L126 317.5H339L361.466 335.82C401.177 368.204 428.01 413.711 437.126 464.134C438.349 470.901 441.495 477.173 446.187 482.201L462.571 499.755C468.258 505.848 466.444 515.704 458.96 519.373L444.548 526.437C430.655 533.248 414.765 534.794 399.819 530.791L387.967 527.616C374.45 523.996 360.078 525.402 347.52 531.575C321.897 544.169 292.824 547.921 264.844 542.244L255.528 540.354C244.712 538.159 233.504 538.94 223.096 542.613L213.384 546.041C196.967 551.835 179.053 551.779 162.673 545.882C146.631 540.107 129.18 539.52 112.786 544.204L108.045 545.559C96.0156 548.996 83.0753 546.742 72.9166 539.44L68.7255 536.428C61.3117 531.099 51.8827 529.417 43.0838 531.854C31.7542 534.991 19.6343 531.257 12.035 522.287L2.25641 510.745C-1.31697 506.528 1.19961 499.858 6.35804 497.871C21.6332 491.986 29.3503 480.546 31.5 474.5Z" fill="url(#paint1_linear_34_377)"/>
<mask id="mask1_34_377" style="mask-type:alpha" maskUnits="userSpaceOnUse" x="308" y="316" width="79" height="146">
<path d="M381.937 442.5C401.937 421.3 351.604 349.333 323.937 316L308.437 318.5L345.437 459.5C347.604 462.667 361.937 463.7 381.937 442.5Z" fill="#F59235"/>
</mask>
<g mask="url(#mask1_34_377)">
<path d="M381.937 442.5C401.937 421.3 351.604 349.333 323.937 316L308.437 318.5L345.437 459.5C347.604 462.667 361.937 463.7 381.937 442.5Z" fill="url(#paint2_linear_34_377)"/>
<path d="M327 453C337 437.667 363.4 409.8 389 421C421 435 397 531 327 453Z" fill="#662200"/>
</g>
<mask id="mask2_34_377" style="mask-type:alpha" maskUnits="userSpaceOnUse" x="70" y="329" width="75" height="151">
<path d="M77.6753 465.036C51.9714 447.09 99.3628 367.499 126.271 329.947L144.269 329.989L115.897 476.986C113.866 480.48 103.379 482.983 77.6753 465.036Z" fill="#F59235"/>
</mask>
<g mask="url(#mask2_34_377)">
<path d="M77.6753 465.036C51.9714 447.09 99.3628 367.499 126.271 329.947L144.269 329.989L115.897 476.986C113.866 480.48 103.379 482.983 77.6753 465.036Z" fill="url(#paint3_linear_34_377)"/>
<path d="M53 441C75 437.667 120.6 438.6 127 469C135 507 93 505 53 441Z" fill="#662200"/>
</g>
<mask id="mask3_34_377" style="mask-type:alpha" maskUnits="userSpaceOnUse" x="110" y="317" width="247" height="237">
<path d="M129.328 323.5L319.155 317.5L344.159 420.5L355.74 510.435C357.169 521.538 355.122 532.811 349.881 542.703C346.36 549.346 339.458 553.5 331.94 553.5H266.538C258.036 553.5 250.17 549.003 245.856 541.677L240.119 531.934C238.502 529.186 235.552 527.5 232.364 527.5H227.993C225.114 527.5 222.529 529.263 221.477 531.942L217.001 543.346C214.596 549.471 208.687 553.5 202.107 553.5H136.348C126.297 553.5 117.304 547.255 113.792 537.837C111.25 531.021 110.162 523.749 110.598 516.487L116.06 425.5L129.328 323.5Z" fill="#F59235"/>
</mask>
<g mask="url(#mask3_34_377)">
<path d="M129.328 323.5L319.155 317.5L344.159 420.5L355.74 510.435C357.169 521.538 355.122 532.811 349.881 542.703V542.703C346.36 549.346 339.458 553.5 331.94 553.5H266.538C258.036 553.5 250.17 549.003 245.856 541.677L240.119 531.934C238.502 529.186 235.552 527.5 232.364 527.5H227.993C225.114 527.5 222.529 529.263 221.477 531.942L217.001 543.346C214.596 549.471 208.687 553.5 202.107 553.5H136.348C126.297 553.5 117.304 547.255 113.792 537.837V537.837C111.25 531.021 110.162 523.749 110.598 516.487L116.06 425.5L129.328 323.5Z" fill="url(#paint4_linear_34_377)"/>
<ellipse cx="227.5" cy="411" rx="80.5" ry="80" fill="#EAE6CB"/>
<path d="M106 536.289C140.787 529.901 215.177 524.095 234.443 551.966C258.526 586.806 154.166 588.548 106 536.289Z" fill="#662200"/>
<path d="M232.458 544.616C266.338 534.461 339.646 520.55 361.846 546.147C389.596 578.142 286.053 591.292 232.458 544.616Z" fill="#662200"/>
</g>
<path d="M327 350C333.667 379.5 347.2 443 348 461" stroke="#BF671C" stroke-width="3" stroke-linecap="round"/>
<path d="M127.84 350.342C123.517 374.273 114.728 429.539 114.16 459.158" stroke="#BF671C" stroke-width="3" stroke-linecap="round"/>
<mask id="mask4_34_377" style="mask-type:alpha" maskUnits="userSpaceOnUse" x="305" y="1" width="109" height="121">
<path d="M402.298 3.98637C375.292 -6.14575 326.665 18.5044 305.727 32.096L384.984 121.669C402.008 86.6633 429.304 14.1185 402.298 3.98637Z" fill="#EE8A35"/>
</mask>
<g mask="url(#mask4_34_377)">
<path d="M402.298 3.98637C375.292 -6.14575 326.665 18.5044 305.727 32.096L384.984 121.669C402.008 86.6633 429.304 14.1185 402.298 3.98637Z" fill="#FF2DBD"/>
<path d="M392.863 20.0766C372.021 12.2569 334.492 31.2811 318.333 41.7706L379.501 110.9C392.639 83.8839 413.706 27.8962 392.863 20.0766Z" fill="#662200"/>
</g>
<mask id="mask5_34_377" style="mask-type:alpha" maskUnits="userSpaceOnUse" x="8" y="22" width="109" height="120">
<path d="M16.0587 28.0248C41.0077 13.4974 93.1242 29.6651 116.064 39.5649L52.8808 141.244C30.2113 109.557 -8.89035 42.5522 16.0587 28.0248Z" fill="#EE8A35"/>
</mask>
<g mask="url(#mask5_34_377)">
<path d="M16.0587 28.0248C41.0077 13.4974 93.1242 29.6651 116.064 39.5649L52.8808 141.244C30.2113 109.557 -8.89035 42.5522 16.0587 28.0248Z" fill="#FF2DBD"/>
<path d="M34.263 44.3823C53.4279 33.2229 93.4619 45.6423 111.083 53.247L62.5483 131.353C45.1345 107.013 15.0981 55.5417 34.263 44.3823Z" fill="#662200"/>
</g>
<path d="M402.27 200.226C404.673 45.6741 279.779 7.67999 217.032 8.00198C53.0584 15.2036 27.8887 150.744 35.8005 217.613C25.7877 221.477 -42.2994 345.119 230.049 329.664C447.928 317.3 435.646 238.22 402.27 200.226Z" fill="url(#paint5_linear_34_377)"/>
<ellipse cx="223" cy="245" rx="63" ry="40" fill="#EAE6CB"/>
<mask id="mask6_34_377" style="mask-type:alpha" maskUnits="userSpaceOnUse" x="201" y="234" width="47" height="32">
<path d="M223.5 234C219.9 247.2 207.333 250.5 201.5 250.5C220.7 279.3 240.167 260.167 247.5 247C233.1 251.8 225.5 240.333 223.5 234Z" fill="white"/>
</mask>
<g mask="url(#mask6_34_377)">
<path d="M223.5 234C219.9 247.2 207.333 250.5 201.5 250.5C220.7 279.3 240.167 260.167 247.5 247C233.1 251.8 225.5 240.333 223.5 234Z" fill="white"/>
<path d="M205 262C209.333 256.333 223.8 248.4 247 262C242 273 226.6 288.4 205 262Z" fill="#D7253D"/>
</g>
<path d="M200.5 250C208.167 262.167 228.5 278.5 248.5 246.5" stroke="#662200" stroke-width="3" stroke-linecap="round"/>
<path d="M200.5 250C208.167 262.167 228.5 278.5 248.5 246.5" stroke="#662200" stroke-width="3" stroke-linecap="round"/>
<ellipse cx="171.559" cy="127.223" rx="12.3897" ry="20.3732" transform="rotate(-67.5816 171.559 127.223)" fill="#EAE6CB"/>
<ellipse cx="266.771" cy="123.969" rx="12.3897" ry="20.3732" transform="rotate(60.675 266.771 123.969)" fill="#EAE6CB"/>
<path d="M300.717 166.533L310.24 179.952C316.264 188.44 319.5 198.591 319.5 209V214.502C319.5 220.525 316.844 226.241 312.24 230.125C307.098 234.464 299.669 234.763 294.194 230.853L292.832 229.88C290.622 228.301 288.643 226.42 286.955 224.291L283.419 219.832C279.844 215.325 275.382 211.601 270.31 208.89L260.346 203.564C253.169 199.728 248.104 192.859 246.562 184.868L245.548 179.612C244.241 172.84 245.79 165.829 249.828 160.238L251.573 157.822C258.229 148.606 270.439 145.324 280.82 149.962L282.739 150.819C285.233 151.934 287.55 153.407 289.618 155.193L293.293 158.367C296.087 160.78 298.58 163.522 300.717 166.533Z" fill="#AD6225"/>
<path d="M135.283 179.754L128.271 191.73C122.758 201.147 120.23 212.015 121.021 222.899L121.472 229.104C121.909 235.114 124.926 240.641 129.745 244.259C135.369 248.482 143.171 248.233 148.514 243.659L149.657 242.681C151.724 240.911 153.533 238.86 155.03 236.587L158.283 231.649C161.596 226.62 165.911 222.329 170.96 219.044L180.341 212.941C187.384 208.358 192.01 200.866 192.951 192.516L193.64 186.403C194.423 179.452 192.377 172.477 187.962 167.051L186.27 164.972C178.64 155.594 165.227 153.115 154.645 158.962C151.667 160.607 148.91 162.706 146.542 165.149L145.805 165.908C141.755 170.085 138.222 174.733 135.283 179.754Z" fill="#AD6225"/>
<mask id="mask7_34_377" style="mask-type:alpha" maskUnits="userSpaceOnUse" x="263" y="161" width="18" height="29">
<ellipse cx="272.056" cy="175.531" rx="8.71022" ry="14.3228" transform="rotate(1.39435 272.056 175.531)" fill="#662200"/>
</mask>
<g mask="url(#mask7_34_377)">
<ellipse cx="272.056" cy="175.531" rx="8.71022" ry="14.3228" transform="rotate(1.39435 272.056 175.531)" fill="#662200"/>
<ellipse cx="275" cy="165.5" rx="3" ry="3.5" fill="white"/>
</g>
<mask id="mask8_34_377" style="mask-type:alpha" maskUnits="userSpaceOnUse" x="160" y="169" width="18" height="29">
<ellipse cx="169.056" cy="183.531" rx="8.71022" ry="14.3228" transform="rotate(1.39435 169.056 183.531)" fill="#662200"/>
</mask>
<g mask="url(#mask8_34_377)">
<ellipse cx="169.056" cy="183.531" rx="8.71022" ry="14.3228" transform="rotate(1.39435 169.056 183.531)" fill="#662200"/>
<ellipse cx="172" cy="173.5" rx="3" ry="3.5" fill="white"/>
</g>
<ellipse cx="222.5" cy="227.302" rx="11.5" ry="7.30159" fill="#662200"/>
<path d="M223.5 234C221.333 242 210 258 189.5 244.5" stroke="#662200" stroke-width="3" stroke-linecap="round"/>
<path d="M223.5 234.578C225.507 241.99 237 256.5 255.5 242" stroke="#662200" stroke-width="3" stroke-linecap="round"/>
<path d="M352.752 323.108C293.099 288.101 244.163 299.157 224.786 320.126C280.585 358.989 327.923 352.237 353.096 338.617C359.391 335.212 358.924 326.731 352.752 323.108Z" fill="url(#paint6_linear_34_377)"/>
<path d="M296.337 424.329C282.951 361.032 249.359 328.446 228.521 322.588C235.978 382.535 262.66 417.067 283.454 433.245C290.098 438.414 298.079 432.564 296.337 424.329Z" fill="url(#paint7_linear_34_377)"/>
<path d="M162.909 420.896C177.4 358.771 211.181 327.333 231.844 321.985C223.267 380.929 196.257 414.426 175.427 429.949C168.772 434.909 161.023 428.979 162.909 420.896Z" fill="url(#paint8_linear_34_377)"/>
<path d="M105.425 321.965C163.235 287.909 214.313 300.67 233 322C178.883 360.21 129.753 351.229 104.887 336.641C99.1112 333.252 99.6544 325.364 105.425 321.965Z" fill="url(#paint9_linear_34_377)"/>
<path d="M218.5 528C233.5 530.5 242.5 528 244.5 528" stroke="#BF671C" stroke-width="3" stroke-linecap="round"/>
<path d="M105 325C7.40001 304.2 16 243.333 36 217C35.3333 185 42 125 56 101" stroke="#BF671C" stroke-width="3" stroke-linecap="round"/>
<defs>
<linearGradient id="paint0_linear_34_377" x1="567" y1="331" x2="376" y2="359" gradientUnits="userSpaceOnUse">
<stop stop-color="#FF2DBD"/>
<stop offset="1" stop-color="#FF2DBD"/>
</linearGradient>
<linearGradient id="paint1_linear_34_377" x1="248" y1="325" x2="221" y2="584" gradientUnits="userSpaceOnUse">
<stop offset="0.0189474" stop-color="#D7253D"/>
<stop offset="1" stop-color="#BC2035"/>
</linearGradient>
<linearGradient id="paint2_linear_34_377" x1="347.477" y1="316" x2="347.477" y2="461.232" gradientUnits="userSpaceOnUse">
<stop stop-color="#FF2DBD"/>
<stop offset="1" stop-color="#FF2DBD"/>
</linearGradient>
<linearGradient id="paint3_linear_34_377" x1="99.4622" y1="333.664" x2="119.507" y2="478.242" gradientUnits="userSpaceOnUse">
<stop stop-color="#FF2DBD"/>
<stop offset="1" stop-color="#FF2DBD"/>
</linearGradient>
<linearGradient id="paint4_linear_34_377" x1="233.937" y1="317.5" x2="233.937" y2="553.5" gradientUnits="userSpaceOnUse">
<stop stop-color="#FF2DBD"/>
<stop offset="1" stop-color="#FF2DBD"/>
</linearGradient>
<linearGradient id="paint5_linear_34_377" x1="37" y1="41" x2="357" y2="299" gradientUnits="userSpaceOnUse">
<stop stop-color="#FF2DBD"/>
<stop offset="1" stop-color="#FF2DBD"/>
</linearGradient>
<linearGradient id="paint6_linear_34_377" x1="255.185" y1="295.186" x2="259.059" y2="350.31" gradientUnits="userSpaceOnUse">
<stop stop-color="#D7253D"/>
<stop offset="1" stop-color="#BC2035"/>
</linearGradient>
<linearGradient id="paint7_linear_34_377" x1="260.621" y1="334.747" x2="226.016" y2="359.795" gradientUnits="userSpaceOnUse">
<stop stop-color="#C23144"/>
<stop offset="1" stop-color="#AE2639"/>
</linearGradient>
<linearGradient id="paint8_linear_34_377" x1="199.951" y1="333.315" x2="233.552" y2="358.715" gradientUnits="userSpaceOnUse">
<stop stop-color="#C23144"/>
<stop offset="1" stop-color="#AE2639"/>
</linearGradient>
<linearGradient id="paint9_linear_34_377" x1="202.771" y1="295.326" x2="197.677" y2="351.509" gradientUnits="userSpaceOnUse">
<stop stop-color="#D7253D"/>
<stop offset="1" stop-color="#BC2035"/>
</linearGradient>
</defs>
</svg>
